<svg xmlns="http://www.w3.org/2000/svg" viewBox="0 0 350 162.74740432998945" preserveAspectRatio="xMidYMid meet" class="css-grg60t" id="ecdcaaca"><defs id="SvgjsDefs1031"/><g id="SvgjsG1032" featurekey="1p4tPl-0" transform="matrix(1.5981734046292655,0,0,1.5981734046292655,95.09132519612594,-34.99999695172614)" fill="#111111"><polygon xmlns="http://www.w3.org/2000/svg" points="26.2,35.4 6.2,47.9 6.2,52.1 26.2,64.6 28.8,60.4 12.2,50 28.8,39.6 "/><polygon xmlns="http://www.w3.org/2000/svg" points="71.2,39.6 87.8,50 71.2,60.4 73.8,64.6 93.8,52.1 93.8,47.9 73.8,35.4 "/><polygon xmlns="http://www.w3.org/2000/svg" points="51.7,28.7 39,55.9 52.6,62.2 53.6,60 65.2,35 68.4,28.2 54.8,21.9 "/><polygon xmlns="http://www.w3.org/2000/svg" points="38.4,74.9 50.5,66.8 36.9,60.4 "/></g><g id="SvgjsG1033" featurekey="dYASrj-0" transform="matrix(2.9536802502314807,0,0,2.9536802502314807,-1.586126823941916,90.23160579096508)" fill="#111111"><path d="M11.035 20 l-1.1523 -3.2227 l-6.1719 0 l-1.1523 3.2227 l-2.0215 0 l5.0879 -13.809 l2.3438 0 l5.0879 13.809 l-2.0215 0 z M4.3164 15.0781 l4.9609 0 l-2.4805 -6.9629 z M22.36325 5 l1.875 0 l0 15 l-1.8066 0 l-0.048828 -1.7578 c-0.5957 1.2109 -1.875 1.9629 -3.3496 1.9629 c-2.4902 0 -4.5508 -1.9531 -4.5508 -5.0391 c0 -3.0664 2.0703 -5.0293 4.5508 -5.0293 c1.4551 0 2.7246 0.73242 3.3301 1.9141 l0 -7.0508 z M19.43355 18.6035 c1.7188 0 3.0566 -1.4551 3.0566 -3.4375 c0 -1.9727 -1.3477 -3.4277 -3.0566 -3.4277 s-3.0762 1.3477 -3.0762 3.4277 s1.3672 3.4375 3.0762 3.4375 z M28.55466875 8.193 c-0.66406 0 -1.2305 -0.54688 -1.2305 -1.2207 s0.56641 -1.2109 1.2305 -1.2109 c0.6543 0 1.2109 0.53711 1.2109 1.2109 s-0.55664 1.2207 -1.2109 1.2207 z M27.59766875 20 l0 -9.668 l1.8848 0 l0 9.668 l-1.8848 0 z M36.015609375 20 c-1.6309 0 -2.6367 -0.97656 -2.6367 -2.6953 l0 -5.498 l-1.9727 0 l0 -1.4746 l0.71289 0 c1.0059 0 1.416 -0.41992 1.416 -1.543 l0 -1.6699 l1.7285 0 l0 3.2129 l2.1875 0 l0 1.4746 l-2.1875 0 l0 5.3027 c0 0.92773 0.53711 1.416 1.2988 1.416 l0.88867 0 l0 1.4746 l-1.4355 0 z M45.8691625 10.332 l1.9727 0 l-5.6738 14.219 l-1.9336 0 l1.9922 -4.7949 l-3.7988 -9.4238 l2.0703 0 l2.666 7.3242 z M52.03126875 20.18555 c-1.5918 0 -2.959 -0.78125 -2.959 -2.6465 c0 -2.0215 1.6016 -2.6855 3.6719 -3.0469 l1.5234 -0.26367 c0.61523 -0.11719 0.87891 -0.41016 0.87891 -0.88867 c0 -1.3281 -0.99609 -1.7969 -2.0508 -1.7969 c-1.1133 0 -2.0313 0.49805 -2.1777 1.7676 l-1.6895 -0.3418 c0.3125 -1.9043 1.7285 -2.8125 3.9551 -2.8125 c1.9434 0 3.7695 0.77148 3.7695 3.3691 l0 3.916 c0 0.99609 0.2832 1.2402 0.9668 1.2402 l0.14648 0 l0 1.3184 l-0.9082 0 c-1.0156 0 -1.6797 -0.40039 -1.875 -1.2988 l-0.087891 0 c-0.77148 1.0645 -1.9824 1.4844 -3.1641 1.4844 z M52.46096875 18.6914 c1.6406 0 2.8223 -1.25 2.8223 -3.3008 l-2.5293 0.51758 c-1.2012 0.20508 -1.8555 0.60547 -1.8555 1.4844 c0 0.91797 0.69336 1.2988 1.5625 1.2988 z M75.35125 6.191000000000001 l-4.541 7.2266 l0 6.582 l-1.9629 0 l0 -6.5723 l-4.5508 -7.2363 l2.207 0 l3.3203 5.4785 l3.3301 -5.4785 l2.1973 0 z M79.6679875 20.18555 c-1.5918 0 -2.959 -0.78125 -2.959 -2.6465 c0 -2.0215 1.6016 -2.6855 3.6719 -3.0469 l1.5234 -0.26367 c0.61523 -0.11719 0.87891 -0.41016 0.87891 -0.88867 c0 -1.3281 -0.99609 -1.7969 -2.0508 -1.7969 c-1.1133 0 -2.0313 0.49805 -2.1777 1.7676 l-1.6895 -0.3418 c0.3125 -1.9043 1.7285 -2.8125 3.9551 -2.8125 c1.9434 0 3.7695 0.77148 3.7695 3.3691 l0 3.916 c0 0.99609 0.2832 1.2402 0.9668 1.2402 l0.14648 0 l0 1.3184 l-0.9082 0 c-1.0156 0 -1.6797 -0.40039 -1.875 -1.2988 l-0.087891 0 c-0.77148 1.0645 -1.9824 1.4844 -3.1641 1.4844 z M80.0976875 18.6914 c1.6406 0 2.8223 -1.25 2.8223 -3.3008 l-2.5293 0.51758 c-1.2012 0.20508 -1.8555 0.60547 -1.8555 1.4844 c0 0.91797 0.69336 1.2988 1.5625 1.2988 z M95.11715625 5 l1.875 0 l0 15 l-1.8066 0 l-0.048828 -1.7578 c-0.5957 1.2109 -1.875 1.9629 -3.3496 1.9629 c-2.4902 0 -4.5508 -1.9531 -4.5508 -5.0391 c0 -3.0664 2.0703 -5.0293 4.5508 -5.0293 c1.4551 0 2.7246 0.73242 3.3301 1.9141 l0 -7.0508 z M92.18745625 18.6035 c1.7188 0 3.0566 -1.4551 3.0566 -3.4375 c0 -1.9727 -1.3477 -3.4277 -3.0566 -3.4277 s-3.0762 1.3477 -3.0762 3.4277 s1.3672 3.4375 3.0762 3.4375 z M102.597675 20.18555 c-1.5918 0 -2.959 -0.78125 -2.959 -2.6465 c0 -2.0215 1.6016 -2.6855 3.6719 -3.0469 l1.5234 -0.26367 c0.61523 -0.11719 0.87891 -0.41016 0.87891 -0.88867 c0 -1.3281 -0.99609 -1.7969 -2.0508 -1.7969 c-1.1133 0 -2.0313 0.49805 -2.1777 1.7676 l-1.6895 -0.3418 c0.3125 -1.9043 1.7285 -2.8125 3.9551 -2.8125 c1.9434 0 3.7695 0.77148 3.7695 3.3691 l0 3.916 c0 0.99609 0.2832 1.2402 0.9668 1.2402 l0.14648 0 l0 1.3184 l-0.9082 0 c-1.0156 0 -1.6797 -0.40039 -1.875 -1.2988 l-0.087891 0 c-0.77148 1.0645 -1.9824 1.4844 -3.1641 1.4844 z M103.027375 18.6914 c1.6406 0 2.8223 -1.25 2.8223 -3.3008 l-2.5293 0.51758 c-1.2012 0.20508 -1.8555 0.60547 -1.8555 1.4844 c0 0.91797 0.69336 1.2988 1.5625 1.2988 z M117.03124375 10.332 l2.002 0 l-3.9648 9.668 l-1.6113 0 l-3.9453 -9.668 l1.9922 0 l2.7637 7.5 z"/></g></svg>